<mxfile host="Electron" modified="2023-09-07T21:22:04.366Z" agent="Mozilla/5.0 (Windows NT 10.0; Win64; x64) AppleWebKit/537.36 (KHTML, like Gecko) draw.io/21.6.8 Chrome/114.0.5735.289 Electron/25.5.0 Safari/537.36" etag="5YoPelkLX9C1TduAsQhP" version="21.6.8" type="device">
  <diagram name="Page-1" id="P-90w1exZtffe3b4Nz8B">
    <mxGraphModel dx="1338" dy="772" grid="1" gridSize="10" guides="1" tooltips="1" connect="1" arrows="1" fold="1" page="1" pageScale="1" pageWidth="1600" pageHeight="900" math="0" shadow="0">
      <root>
        <mxCell id="0" />
        <mxCell id="1" parent="0" />
        <mxCell id="0lHBZWnjTKG7HeMe5Ugl-10" style="edgeStyle=orthogonalEdgeStyle;rounded=0;orthogonalLoop=1;jettySize=auto;html=1;exitX=0.5;exitY=0;exitDx=0;exitDy=0;entryX=0.5;entryY=1;entryDx=0;entryDy=0;" edge="1" parent="1" source="0lHBZWnjTKG7HeMe5Ugl-1" target="0lHBZWnjTKG7HeMe5Ugl-3">
          <mxGeometry relative="1" as="geometry" />
        </mxCell>
        <mxCell id="0lHBZWnjTKG7HeMe5Ugl-1" value="MaryAnne Hair Salon System" style="ellipse;whiteSpace=wrap;html=1;aspect=fixed;" vertex="1" parent="1">
          <mxGeometry x="725" y="375" width="150" height="150" as="geometry" />
        </mxCell>
        <mxCell id="0lHBZWnjTKG7HeMe5Ugl-6" style="edgeStyle=orthogonalEdgeStyle;rounded=0;orthogonalLoop=1;jettySize=auto;html=1;exitX=1;exitY=0.5;exitDx=0;exitDy=0;entryX=0;entryY=0.5;entryDx=0;entryDy=0;" edge="1" parent="1" source="0lHBZWnjTKG7HeMe5Ugl-2" target="0lHBZWnjTKG7HeMe5Ugl-1">
          <mxGeometry relative="1" as="geometry" />
        </mxCell>
        <mxCell id="0lHBZWnjTKG7HeMe5Ugl-2" value="Customer" style="rounded=1;whiteSpace=wrap;html=1;" vertex="1" parent="1">
          <mxGeometry x="396" y="370" width="120" height="160" as="geometry" />
        </mxCell>
        <mxCell id="0lHBZWnjTKG7HeMe5Ugl-3" value="Admin" style="rounded=1;whiteSpace=wrap;html=1;" vertex="1" parent="1">
          <mxGeometry x="740" y="140" width="120" height="160" as="geometry" />
        </mxCell>
        <mxCell id="0lHBZWnjTKG7HeMe5Ugl-14" style="edgeStyle=orthogonalEdgeStyle;rounded=0;orthogonalLoop=1;jettySize=auto;html=1;exitX=0;exitY=0.5;exitDx=0;exitDy=0;entryX=1;entryY=0.5;entryDx=0;entryDy=0;" edge="1" parent="1">
          <mxGeometry relative="1" as="geometry">
            <mxPoint x="1026.0000000000002" y="450.9999999999999" as="sourcePoint" />
            <mxPoint x="874.9999999999993" y="450" as="targetPoint" />
          </mxGeometry>
        </mxCell>
        <mxCell id="0lHBZWnjTKG7HeMe5Ugl-4" value="Employee" style="rounded=1;whiteSpace=wrap;html=1;" vertex="1" parent="1">
          <mxGeometry x="1026" y="371" width="120" height="160" as="geometry" />
        </mxCell>
        <mxCell id="0lHBZWnjTKG7HeMe5Ugl-7" value="Booking Request,Profile Data" style="text;html=1;strokeColor=none;fillColor=none;align=center;verticalAlign=middle;whiteSpace=wrap;rounded=0;" vertex="1" parent="1">
          <mxGeometry x="540" y="420" width="160" height="30" as="geometry" />
        </mxCell>
        <mxCell id="0lHBZWnjTKG7HeMe5Ugl-8" style="edgeStyle=orthogonalEdgeStyle;rounded=0;orthogonalLoop=1;jettySize=auto;html=1;exitX=1;exitY=0.5;exitDx=0;exitDy=0;entryX=0.005;entryY=0.605;entryDx=0;entryDy=0;entryPerimeter=0;startArrow=classic;startFill=1;endArrow=none;endFill=0;" edge="1" parent="1" target="0lHBZWnjTKG7HeMe5Ugl-1">
          <mxGeometry relative="1" as="geometry">
            <mxPoint x="516" y="465" as="sourcePoint" />
            <mxPoint x="725" y="465" as="targetPoint" />
          </mxGeometry>
        </mxCell>
        <mxCell id="0lHBZWnjTKG7HeMe5Ugl-9" value="Booking Confirmation,Rewards Info" style="text;html=1;strokeColor=none;fillColor=none;align=center;verticalAlign=middle;whiteSpace=wrap;rounded=0;" vertex="1" parent="1">
          <mxGeometry x="540" y="470" width="160" height="30" as="geometry" />
        </mxCell>
        <mxCell id="0lHBZWnjTKG7HeMe5Ugl-11" style="edgeStyle=orthogonalEdgeStyle;rounded=0;orthogonalLoop=1;jettySize=auto;html=1;exitX=0.564;exitY=0.006;exitDx=0;exitDy=0;entryX=0.5;entryY=1;entryDx=0;entryDy=0;startArrow=classic;startFill=1;endArrow=none;endFill=0;exitPerimeter=0;" edge="1" parent="1" source="0lHBZWnjTKG7HeMe5Ugl-1">
          <mxGeometry relative="1" as="geometry">
            <mxPoint x="810" y="375" as="sourcePoint" />
            <mxPoint x="810" y="300" as="targetPoint" />
          </mxGeometry>
        </mxCell>
        <mxCell id="0lHBZWnjTKG7HeMe5Ugl-12" value="Management Commands" style="text;html=1;strokeColor=none;fillColor=none;align=center;verticalAlign=middle;whiteSpace=wrap;rounded=0;" vertex="1" parent="1">
          <mxGeometry x="810" y="320" width="120" height="30" as="geometry" />
        </mxCell>
        <mxCell id="0lHBZWnjTKG7HeMe5Ugl-13" value="System Reports,Updates" style="text;html=1;strokeColor=none;fillColor=none;align=center;verticalAlign=middle;whiteSpace=wrap;rounded=0;" vertex="1" parent="1">
          <mxGeometry x="670" y="320" width="120" height="30" as="geometry" />
        </mxCell>
        <mxCell id="0lHBZWnjTKG7HeMe5Ugl-15" style="edgeStyle=orthogonalEdgeStyle;rounded=0;orthogonalLoop=1;jettySize=auto;html=1;entryX=0.995;entryY=0.569;entryDx=0;entryDy=0;startArrow=classic;startFill=1;endArrow=none;endFill=0;entryPerimeter=0;exitX=0.002;exitY=0.561;exitDx=0;exitDy=0;exitPerimeter=0;" edge="1" parent="1" source="0lHBZWnjTKG7HeMe5Ugl-4" target="0lHBZWnjTKG7HeMe5Ugl-1">
          <mxGeometry relative="1" as="geometry">
            <mxPoint x="1020" y="460" as="sourcePoint" />
            <mxPoint x="875" y="460" as="targetPoint" />
          </mxGeometry>
        </mxCell>
        <mxCell id="0lHBZWnjTKG7HeMe5Ugl-16" value="Availability,Completed Jobs" style="text;html=1;strokeColor=none;fillColor=none;align=center;verticalAlign=middle;whiteSpace=wrap;rounded=0;" vertex="1" parent="1">
          <mxGeometry x="900" y="417" width="120" height="30" as="geometry" />
        </mxCell>
        <mxCell id="0lHBZWnjTKG7HeMe5Ugl-17" value="Daily Schedule" style="text;html=1;strokeColor=none;fillColor=none;align=center;verticalAlign=middle;whiteSpace=wrap;rounded=0;" vertex="1" parent="1">
          <mxGeometry x="890" y="470" width="120" height="30" as="geometry" />
        </mxCell>
      </root>
    </mxGraphModel>
  </diagram>
</mxfile>
